<svg xmlns="http://www.w3.org/2000/svg" width="16" height="17.005" viewBox="0 0 16 17.005"><defs><style>.a{fill:#514051;}</style></defs><g transform="translate(-1334.679 -3664.305)"><path class="a" d="M1350.42,3669.652h-15.482a.258.258,0,1,1,0-.516h15.482a.258.258,0,1,1,0,.516" transform="translate(0 -2.339)"/><path class="a" d="M1350.037,3667.313a.258.258,0,0,1-.258-.258v-1.725a.509.509,0,0,0-.509-.509h-3.708a.509.509,0,0,0-.51.509v1.725a.258.258,0,0,1-.516,0v-1.725a1.026,1.026,0,0,1,1.025-1.025h3.708a1.026,1.026,0,0,1,1.024,1.025v1.725a.258.258,0,0,1-.258.258" transform="translate(-4.737)"/><path class="a" d="M1349.471,3685.387h-10.084a.259.259,0,0,1-.259-.24l-.834-12.146a.256.256,0,0,1,.07-.193.26.26,0,0,1,.189-.082H1350.3a.26.26,0,0,1,.189.082.255.255,0,0,1,.07.193l-.834,12.146a.259.259,0,0,1-.259.24m-9.841-.516h9.6l.8-11.629h-11.2Z" transform="translate(-1.75 -4.077)"/><path class="a" d="M1353.387,3685.535h-.018a.259.259,0,0,1-.24-.275l.5-7.365a.254.254,0,0,1,.275-.24.258.258,0,0,1,.24.275l-.5,7.365a.259.259,0,0,1-.257.24" transform="translate(-8.887 -6.463)"/><path class="a" d="M1345.893,3685.536a.259.259,0,0,1-.257-.24l-.5-7.366a.257.257,0,0,1,.24-.275.254.254,0,0,1,.275.24l.5,7.366a.259.259,0,0,1-.24.276h-.018" transform="translate(-5.036 -6.463)"/></g></svg>