<svg xmlns="http://www.w3.org/2000/svg" width="26" height="26" viewBox="0 0 26 26"><defs><style>.a{fill:#fbbd00;}.b{fill:#0f9d58;}.c{fill:#31aa52;}.d{fill:#3c79e6;}.e{fill:#cf2d48;}.f{fill:#eb4132;}</style></defs><path class="a" d="M6.094,108.126a6.864,6.864,0,0,1,.971-3.528v-4.383H2.682a13.007,13.007,0,0,0,0,15.822H7.065v-4.383A6.864,6.864,0,0,1,6.094,108.126Z" transform="translate(0 -95.126)"/><path class="b" d="M199.047,373.928,196,376.975l3.047,3.047a12.9,12.9,0,0,0,7.911-2.682v-4.378H202.58A6.905,6.905,0,0,1,199.047,373.928Z" transform="translate(-186.047 -354.022)"/><path class="c" d="M57.206,325.477l-4.383,4.383a13.2,13.2,0,0,0,1.125,1.281,12.915,12.915,0,0,0,9.192,3.808v-6.094a6.909,6.909,0,0,1-5.935-3.378Z" transform="translate(-50.141 -308.949)"/><path class="d" d="M269,200.3a13.114,13.114,0,0,0-.213-2.355l-.114-.625H256v6.094h6.167a6.875,6.875,0,0,1-2.635,2.825l4.378,4.378a13.21,13.21,0,0,0,1.281-1.125A12.915,12.915,0,0,0,269,200.3Z" transform="translate(-243 -187.304)"/><path class="e" d="M203.93,8.117l.539.539,4.309-4.309-.539-.539A12.915,12.915,0,0,0,199.047,0L196,3.047l3.047,3.047A6.861,6.861,0,0,1,203.93,8.117Z" transform="translate(-186.047 0)"/><path class="f" d="M63.14,6.094V0a12.915,12.915,0,0,0-9.192,3.808,13.2,13.2,0,0,0-1.125,1.281L57.2,9.472A6.909,6.909,0,0,1,63.14,6.094Z" transform="translate(-50.14 0)"/></svg>