<svg xmlns="http://www.w3.org/2000/svg" width="204.486" height="239.853" viewBox="0 0 204.486 239.853"><defs><style>.a{fill:#0f77c1;}.a,.b,.c,.e,.f{fill-rule:evenodd;}.b{fill:#092978;}.c{fill:#8bb7d0;}.d{fill:#e3effd;}.e{fill:#80b1ce;}.f{fill:#e4f5fb;}.g{fill:#e58927;}.h{fill:#ffef95;}.i{fill:#fbca0d;}.j{fill:#fca700;}.k{fill:none;stroke:#fca700;stroke-miterlimit:10;stroke-width:0.216px;}.l{fill:#ec830e;}.m{fill:#ffd915;}.n{fill:#fff;}</style></defs><g transform="translate(-359.041 -245.577)"><path class="a" d="M929.127,838.838l194.181-.064a5.775,5.775,0,0,1,5.76,5.758l.042,128.137a6.738,6.738,0,0,1-6.716,6.721l-197.725.064-.044-136.111a4.517,4.517,0,0,1,4.5-4.506" transform="translate(-565.583 -508.967)"/><path class="b" d="M943.015,853.656l.042,129.3,190.61-.062a1.127,1.127,0,0,0,1.152-1.059l-.042-128.139a.124.124,0,0,0-.108-.1Z" transform="translate(-576.951 -518.128)"/><path class="c" d="M1200.144,758.18a18.008,18.008,0,1,1-25.458.69,18.009,18.009,0,0,1,25.458-.69" transform="translate(-717.096 -456.102)"/><rect class="d" width="65.471" height="127.705" transform="translate(396.348 344.038) rotate(-81)"/><path class="e" d="M1124.426,747.287a13.171,13.171,0,0,1-2.561-14.389l-70.83-47.076a13.17,13.17,0,0,1-14.258,3.21l-14.592,21.956a13.171,13.171,0,0,1,2.561,14.389l70.829,47.076a13.174,13.174,0,0,1,14.259-3.211Zm10.727-5.7-26.42,39.749a5.661,5.661,0,0,1-7.848,1.581l-87.844-58.385a5.662,5.662,0,0,1-1.582-7.848l26.419-39.749a5.663,5.663,0,0,1,7.849-1.581l87.843,58.384A5.664,5.664,0,0,1,1135.153,741.588Z" transform="translate(-816.237 114.492) rotate(-25)"/><path class="e" d="M1152.429,769.977a18.008,18.008,0,1,1-24.966,5.03,18.008,18.008,0,0,1,24.966-5.03" transform="translate(-689.096 -464.582)"/><rect class="d" width="131.669" height="67.503" transform="translate(388.223 293.041) rotate(7)"/><g transform="translate(429.852 323.367) rotate(7)"><path d="M6.243,13.733h1.25v1.25H8.741v1.249H2.5V14.983H3.747v-2.5h2.5v1.249ZM22.474,24.968h1.247V23.72H22.474ZM7.491,13.733H8.74V12.485H7.491ZM24.968,24.968h1.25V23.72h-1.25ZM9.99,26.216h2.5V24.968H9.99Zm11.234,0V24.968h-1.25v1.249Zm-4.993,0H17.48v-2.5H16.231ZM6.243,9.988v1.249H9.988V9.988ZM5,11.236V9.987H2.5v2.5H3.746V11.236Zm3.744-2.5H0V0H8.74ZM7.491,1.25H1.249V7.491H7.491ZM2.5,23.72H6.242V19.974H2.5Zm12.484-1.25v1.25h1.25V22.47ZM6.243,2.5H2.5V6.242H6.243ZM26.216,0V8.739H17.478V0ZM24.968,1.25H18.727V7.491h6.241ZM0,17.476H8.739v8.738H0Zm1.25,7.492H7.492V18.726H1.25Zm0-14.98H0v6.243H1.25Zm16.228,6.241v1.247h1.249V16.229Zm-3.745,4.994V19.974H12.485v1.25h-2.5v2.5h2.5v1.249h1.248v-2.5h1.25V21.224h-1.25ZM9.99,4.995h2.5V3.744H9.99Zm9.985,9.987h2.5v1.249h1.248V12.486H22.474v-2.5h-1.25v3.745H17.481v1.25H18.73v1.249h1.249V14.983h0Zm1.249,3.744h-1.25v-1.25H18.726v2.5H14.981v1.25h2.5v2.5h1.249v1.249h1.249v-2.5H24.97V21.224H21.226v-2.5Zm0,0h1.25v-2.5h-1.25Zm-9.987,0v-1.25h1.247V16.229h1.248V14.98h1.25v-2.5h3.744v-2.5H17.477v1.249H16.228V6.239H14.979v-2.5h1.249V0H14.979V2.5H13.731V0H9.986V2.5h1.249V1.249h1.247v2.5h1.249V7.49h1.249V8.738H13.731v2.5H12.482v-2.5H11.235V7.491H9.986v2.5h1.249v1.249H9.986v3.746h1.249v-2.5h1.247v2.5H11.235v1.249H9.986v3.743h2.5V18.726Zm13.731,1.249V18.726h-2.5v1.249ZM23.719,2.5H19.975V6.242h3.744ZM13.733,18.726h2.5v-1.25h-1.25V16.229h-1.25v2.5Zm2.5-2.5V14.98H14.98v1.249Zm7.488-4.993h2.5V9.987h-2.5Zm1.249,9.987h1.25V19.974h-1.25Zm0-7.49h1.25V12.485h-1.25ZM13.733,7.491H12.485V8.739h1.248Z" transform="translate(0 0)"/></g><path class="a" d="M115.664,16.145c.026-9.693-.3-4.95-.38-10.461L5.97,5.835C5.917,13.2,5.8,10.443,5.961,16.887L5.97,44.067a13.58,13.58,0,0,1,10.415,10.89l87.686-.028a13.58,13.58,0,0,1,10.408-10.9Zm4.76-10.31.016,49.211a5.838,5.838,0,0,1-5.835,5.838l-108.75.034A5.837,5.837,0,0,1,.016,55.085L0,5.874A5.837,5.837,0,0,1,5.835.036L114.585,0A5.838,5.838,0,0,1,120.424,5.835Z" transform="translate(393.518 297.011) rotate(7)"/><path class="a" d="M924.872,866.942l187.339-.06a5.948,5.948,0,0,1,5.934,5.929l.043,131.978a6.941,6.941,0,0,1-6.918,6.922l-186.351.06Z" transform="translate(-565.736 -526.341)"/><path class="f" d="M935.607,1018.106v1.45h-2.256v-1.45Zm4.027,0v1.45h-2.256v-1.45Zm4.028,0v1.45h-2.255v-1.45Zm4.027,0v1.45l-2.255,0v-1.45Zm4.027,0v1.45h-2.255v-1.45Zm4.027,0v1.449h-2.255v-1.45Zm4.027,0v1.45h-2.255v-1.45Zm4.027,0v1.45h-2.256v-1.45Zm4.028,0v1.45h-2.255v-1.45Zm4.027,0v1.45H969.6v-1.45Zm4.028,0v1.45h-2.255v-1.45Zm4.028,0v1.45h-2.256v-1.45Zm4.028,0v1.45H981.68v-1.448Zm4.027,0v1.45h-2.256v-1.449Zm4.027,0v1.45l-2.256,0v-1.45Zm4.027,0v1.45h-2.255v-1.45Zm4.027,0v1.45h-2.255v-1.45Zm4.027,0v1.45h-2.256v-1.45Zm4.027,0v1.45h-2.256v-1.45Zm4.028,0v1.45h-2.255v-1.45Zm4.027,0v1.449H1013.9v-1.45Zm4.027,0v1.45h-2.255v-1.45Zm4.028,0v1.449h-2.256v-1.45Zm4.028,0v1.45h-2.256v-1.45Zm4.027,0v1.45h-2.255v-1.45Zm4.028,0v1.45h-2.255v-1.45Zm4.027,0v1.45h-2.255v-1.45Zm4.027,0v1.45h-2.255v-1.45Zm4.028,0v1.45h-2.255v-1.45Zm4.027,0v1.45h-2.255v-1.45Zm4.028,0v1.45h-2.255v-1.449Zm4.027,0v1.45l-2.255,0v-1.45Zm4.027,0v1.45h-2.255v-1.45Zm4.028,0v1.45h-2.256v-1.45Zm4.028,0v1.45l-2.255,0v-1.45Zm4.027,0v1.45h-2.255v-1.45Zm4.027,0v1.45h-2.255v-1.45Zm4.027,0v1.449h-2.255v-1.45Zm4.027,0v1.45h-2.255v-1.45Zm4.028,0v1.449h-2.255v-1.45Zm4.027,0v1.45h-2.255v-1.45Zm4.027,0v1.45h-2.255v-1.45Zm4.027,0v1.45H1102.5v-1.45Zm4.028,0v1.45h-2.256v-1.45Zm2.245,0,.034-.007.034-.011.027-.012.049-.028.034-.028.028-.025.03-.038.014-.02.006-.012.019-.037,0-.007,0-.006.01-.031.006-.026.047-.33,1.428.25-.055.374-.036.146-.043.128-.046.111-.065.129-.1.155-.086.114-.091.1-.091.089-.167.136-.1.065-.126.071-.091.044-.16.063-.187.053-.176.029-.169.01h-.459v-1.45H1111Zm.3-4.522h1.45v2.256h-1.45Zm0-4.027h1.45v2.255h-1.45Zm0-4.028h1.45v2.255h-1.45Zm0-4.027,1.45,0v2.257h-1.45Zm0-4.028h1.45v2.255h-1.45Zm0-4.027h1.45v2.256h-1.449Zm0-4.028h1.449l0,2.255h-1.45Zm0-4.026,1.45,0v2.256h-1.449Zm0-4.028h1.45v2.255h-1.45Zm0-4.027h1.45v2.256h-1.45Zm0-4.028h1.45v2.255h-1.45Zm0-4.027h1.45v2.256h-1.45Zm0-4.028h1.45v2.255h-1.45Zm0-4.027,1.45,0v2.256h-1.45Zm0-4.028h1.449l0,2.255h-1.45Zm0-4.028h1.449v2.257h-1.45Zm0-4.026h1.45v2.255h-1.45Zm0-4.028h1.45v2.256h-1.45Zm0-4.027h1.45v2.254h-1.45Zm0-4.027h1.449v2.256h-1.45Zm0-4.028h1.45v2.255H1111.3Zm0-4.028h1.449V931.2l-1.45,0Zm0-4.026,1.45,0v2.256H1111.3Zm0-4.028h1.45v2.255h-1.45Zm0-4.027h1.45v2.257h-1.45Zm0-4.028h1.45v2.255l-1.45,0Zm0-4.027h1.45v2.255h-1.45Zm0-4.027h1.45v2.255h-1.45Zm0-4.027h1.45v2.256h-1.45Zm0-4.028h1.449v2.255l-1.45,0Zm0-4.027,1.45,0,0,2.256h-1.45Zm-4.148-2.5v-1.45h2.255v1.45Zm-4.028,0v-1.45h2.256v1.45Zm-4.027,0v-1.45h2.256v1.45Zm-4.027,0v-1.45h2.256v1.45Zm-4.028,0v-1.45h2.255v1.449Zm-4.027,0v-1.45h2.256v1.45Zm-4.028,0v-1.45h2.255v1.449Zm-4.027,0v-1.449l2.255,0v1.45Zm-4.027,0v-1.45h2.255v1.449Zm-4.028,0v-1.45h2.255v1.45Zm-4.027,0v-1.45l2.256,0v1.45Zm-4.028,0v-1.45l2.256,0v1.45Zm-4.028,0v-1.45h2.256v1.45Zm-4.028,0v-1.448l2.256,0v1.45Zm-4.027,0v-1.448h2.255v1.45Zm-4.027,0v-1.449h2.255v1.45Zm-4.028,0v-1.45h2.255v1.45Zm-4.027,0v-1.45h2.255v1.45Zm-4.027,0v-1.45h2.255v1.45Zm-4.027,0v-1.45h2.255v1.45Zm-4.028,0v-1.45h2.255v1.45Zm-4.027,0v-1.45h2.255v1.45Zm-4.028,0v-1.45h2.256v1.45Zm-4.027,0v-1.45h2.255v1.45Zm-4.027,0v-1.45h2.255v1.45Zm-4.027,0v-1.45l2.255,0v1.45Zm-4.027,0v-1.45h2.255v1.45Zm-4.028,0v-1.45h2.255v1.45Zm-4.027,0v-1.45h2.256v1.45Zm-4.027,0v-1.45l2.255,0v1.45Zm-4.028,0v-1.449h2.255v1.45Zm-4.027,0v-1.45h2.255v1.45Zm-4.028,0V888.8l2.255,0v1.45Zm-4.028,0V888.8h2.255v1.45Zm-4.027,0V888.8h2.255v1.45Zm-4.028,0V888.8h2.255v1.45Zm-4.028,0V888.8h2.255v1.45Zm-4.027,0V888.8h2.255v1.448Zm-4.027,0V888.8h2.255v1.45Zm-4.027,0V888.8l2.256,0v1.45Zm-4.027,0v-1.45H948.3v1.45Zm-4.028,0v-1.45l2.255,0v1.45Zm-4.028,0v-1.45l2.256,0v1.45Zm-4.028,0v-1.45h2.256v1.45Zm178.778.67-1.45,0v-.73h-.12v-1.45C1112.578,888.752,1112.735,888.394,1112.737,890.93Z" transform="translate(-570.977 -539.848)"/><path class="g" d="M1288.129,811.8a24.135,24.135,0,0,1,46.045,12.216l-48.042.015a24.027,24.027,0,0,1,2-12.231" transform="translate(-859.958 -483.471)"/><path class="h" d="M1286.543,806.177a24.134,24.134,0,0,1,45.736,14.363l-47.42.015a24.015,24.015,0,0,1,1.684-14.378" transform="translate(-858.979 -479.999)"/><path class="i" d="M1287.506,808.927a24.135,24.135,0,0,1,45.913,13.313l-47.775.015a24.023,24.023,0,0,1,1.862-13.328" transform="translate(-859.574 -481.699)"/><path class="j" d="M1296.748,816.332a20.483,20.483,0,0,1,38.884,11.821l-40.381.012A20.383,20.383,0,0,1,1296.748,816.332Z" transform="translate(-865.484 -487.61)"/><path class="k" d="M1296.748,816.332a20.483,20.483,0,0,1,38.884,11.821l-40.381.012A20.383,20.383,0,0,1,1296.748,816.332Z" transform="translate(-865.484 -487.61)"/><path class="l" d="M1295.9,842.593c-.109-.155-.22-.311-.329-.471.024.159.05.315.077.471Zm36.848-15.03c1.827,5.85,1.345,11.313-.284,15.019h3.557A20.521,20.521,0,0,0,1332.744,827.563Z" transform="translate(-865.864 -502.038)"/><path class="m" d="M1303,823.09a18.078,18.078,0,0,1,34.083,3.194,18.08,18.08,0,1,0-35.7,5.462h.075A18,18,0,0,1,1303,823.09" transform="translate(-869.227 -491.19)"/><g transform="translate(448.041 394.577)"><path class="n" d="M6.094,108.126a6.864,6.864,0,0,1,.971-3.528v-4.383H2.682a13.007,13.007,0,0,0,0,15.822H7.065v-4.383A6.864,6.864,0,0,1,6.094,108.126Z" transform="translate(0 -95.126)"/><path class="n" d="M199.047,373.928,196,376.975l3.047,3.047a12.9,12.9,0,0,0,7.911-2.682v-4.378H202.58A6.905,6.905,0,0,1,199.047,373.928Z" transform="translate(-186.047 -354.022)"/><path class="n" d="M57.206,325.477l-4.383,4.383a13.2,13.2,0,0,0,1.125,1.281,12.915,12.915,0,0,0,9.192,3.808v-6.094a6.909,6.909,0,0,1-5.935-3.378Z" transform="translate(-50.141 -308.949)"/><path class="n" d="M269,200.3a13.114,13.114,0,0,0-.213-2.355l-.114-.625H256v6.094h6.167a6.875,6.875,0,0,1-2.635,2.825l4.378,4.378a13.21,13.21,0,0,0,1.281-1.125A12.915,12.915,0,0,0,269,200.3Z" transform="translate(-243 -187.304)"/><path class="n" d="M203.93,8.117l.539.539,4.309-4.309-.539-.539A12.915,12.915,0,0,0,199.047,0L196,3.047l3.047,3.047A6.861,6.861,0,0,1,203.93,8.117Z" transform="translate(-186.047 0)"/><path class="n" d="M63.14,6.094V0a12.915,12.915,0,0,0-9.192,3.808,13.2,13.2,0,0,0-1.125,1.281L57.2,9.472A6.909,6.909,0,0,1,63.14,6.094Z" transform="translate(-50.14 0)"/></g></g></svg>